<?xml version="1.0" encoding="utf-8"?>
<!-- Generator: Adobe Illustrator 27.4.0, SVG Export Plug-In . SVG Version: 6.00 Build 0)  -->
<svg version="1.1" id="Layer_1" xmlns="http://www.w3.org/2000/svg" xmlns:xlink="http://www.w3.org/1999/xlink" x="0px" y="0px"
	 viewBox="0 0 73 47" style="enable-background:new 0 0 73 47;" xml:space="preserve">
<style type="text/css">
	.st0{fill:#EFEFEF;}
</style>
<g>
	<path class="st0" d="M21.4,4.6c1.1,0,4.4,0,7,2.3c2.3,1.9,3.4,5.1,3.4,8.1c0,2.9-1,5.7-3.2,7.7c-2.3,2.2-5.1,2.4-8.3,2.6H6.9v14.4
		H1.5V4.6H21.4z M6.8,21.1h12.8c0.7-0.1,1.4-0.1,2.1-0.2c0.9-0.1,2.8-0.5,4-2.8c0.7-1.3,0.8-2.6,0.8-3.2c0-0.6-0.1-2-1.1-3.4
		C23.9,9,21.8,9,19.1,8.9H6.8V21.1z"/>
	<path class="st0" d="M65.4,15.5c-0.5-1.4-0.9-2.1-1.3-2.8C63,11.1,60.8,9,56.3,8.3c-0.8-0.1-2.1-0.2-3-0.2c-3.3,0-6.4,1-8.9,3.1
		c-4.3,3.6-4.5,9-4.5,10.9c0,7.3,3.7,10.8,6.4,12.3c0.7,0.4,1.6,0.8,3.4,1.3c0.7,0.2,2.2,0.5,4.1,0.5c4.7,0,9.3-2.3,11.6-6.5
		c0.6-1.2,0.9-1.9,1.4-4.3H55.1v-4.6h16.3l-0.2,19h-3.9l-0.5-5.1c-1,1-1.8,1.8-2.9,2.6c-4.3,3.1-9.7,3.3-11.2,3.3
		c-5.5,0-11-2.3-14.5-6.6c-1.4-1.7-3.8-5.6-3.8-11.6c0-1.2,0.1-3.9,1.2-7c2.8-7.8,9.8-11.6,17.8-11.6c1.8,0,10.3,0.2,15,6.1
		c1.5,1.8,2,3.5,2.8,5.7H65.4z"/>
</g>
</svg>
